<svg width="27" height="18" viewBox="0 0 27 18" fill="none" xmlns="http://www.w3.org/2000/svg">
<path fill-rule="evenodd" clip-rule="evenodd" d="M9.58569 0H9.99991H25.9999H26.9999V1V17V18H25.9999H9.99991H9.58569L9.2928 17.7071L1.2928 9.70711L0.585693 9L1.2928 8.29289L9.2928 0.292893L9.58569 0ZM10.4141 2L3.41412 9L10.4141 16H24.9999V2H10.4141ZM13.9999 4.58578L14.707 5.29288L16.9999 7.58578L19.2928 5.29289L19.9999 4.58579L21.4141 6L20.707 6.70711L18.4141 9L20.707 11.2929L21.4141 12L19.9999 13.4142L19.2928 12.7071L16.9999 10.4142L14.707 12.7071L13.9999 13.4142L12.5857 12L13.2928 11.2929L15.5857 9L13.2928 6.7071L12.5857 5.99999L13.9999 4.58578Z" fill="black"/>
</svg>
